<svg viewBox="0 0 200 200" xmlns="http://www.w3.org/2000/svg" fill="url(#grad)" stroke="none">
  <defs>
    <linearGradient id="grad" x1="0%" y1="0%" x2="100%" y2="0%">
      <stop offset="0%" style="stop-color:#cde9eb;stop-opacity:1" />
      <stop offset="100%" style="stop-color:#64b6bc;stop-opacity:1" />
    </linearGradient>
  </defs>

  <!-- Chien -->
  <path d="M40 150 Q50 100 70 90 Q80 80 90 90 Q100 95 100 110 Q110 100 120 95 Q130 90 135 100 Q140 110 140 140 Q135 150 110 150 Q80 160 60 150 Z" />

  <!-- Chat -->
  <path d="M110 130 Q120 110 130 100 Q140 95 150 110 Q145 130 135 140 Q125 150 110 140 Z" />

  <!-- Lapin -->
  <path d="M140 140 Q145 130 150 125 Q160 120 165 130 Q160 140 150 145 Q140 150 140 140 Z" />
</svg>
